{
  "accessors": [
    {
      "bufferView": 2,
      "componentType": 5126,
      "count": 11411,
      "max": [
        36.08466720581055,
        119.964599609375,
        60.67963790893555
      ],
      "min": [
        -36.08466720581055,
        -54.8837890625,
        9.720733642578125
      ],
      "type": "VEC3"
    },
    {
      "bufferView": 2,
      "byteOffset": 136932,
      "componentType": 5126,
      "count": 11411,
      "max": [
        1.0,
        0.9999995231628418,
        0.999969482421875
      ],
      "min": [
        -1.0,
        -1.0,
        -0.9999904632568359
      ],
      "type": "VEC3"
    },
    {
      "bufferView": 3,
      "componentType": 5126,
      "count": 11411,
      "max": [
        0.9999998807907104,
        0.9999974966049194,
        0.9994065761566162,
        1.0
      ],
      "min": [
        -1.0,
        -0.9999987483024597,
        -0.9999855160713196,
        -1.0
      ],
      "type": "VEC4"
    },
    {
      "bufferView": 1,
      "componentType": 5126,
      "count": 11411,
      "max": [
        0.98990398645401,
        0.9888380169868469
      ],
      "min": [
        0.0021559998858720064,
        0.004935000091791153
      ],
      "type": "VEC2"
    },
    {
      "bufferView": 0,
      "componentType": 5125,
      "count": 62070,
      "type": "SCALAR"
    },
    {
      "bufferView": 2,
      "byteOffset": 273864,
      "componentType": 5126,
      "count": 9997,
      "max": [
        32.38752746582031,
        115.5866470336914,
        43.54342269897461
      ],
      "min": [
        -33.34569549560547,
        -54.56090545654297,
        3.983393907546997
      ],
      "type": "VEC3"
    },
    {
      "bufferView": 2,
      "byteOffset": 393828,
      "componentType": 5126,
      "count": 9997,
      "max": [
        0.9941498637199402,
        0.996212363243103,
        0.9947410225868225
      ],
      "min": [
        -1.0,
        -0.8928983211517334,
        -0.9974183440208435
      ],
      "type": "VEC3"
    },
    {
      "bufferView": 3,
      "byteOffset": 182576,
      "componentType": 5126,
      "count": 9997,
      "max": [
        1.0,
        0.9972262382507324,
        0.6520334482192993,
        1.0
      ],
      "min": [
        -0.9999998211860657,
        -0.9992745518684387,
        -0.9761438965797424,
        -1.0
      ],
      "type": "VEC4"
    },
    {
      "bufferView": 1,
      "byteOffset": 91288,
      "componentType": 5126,
      "count": 9997,
      "max": [
        0.9597989916801453,
        0.9826760292053223
      ],
      "min": [
        0.001689000055193901,
        0.006903000175952911
      ],
      "type": "VEC2"
    },
    {
      "bufferView": 0,
      "byteOffset": 248280,
      "componentType": 5125,
      "count": 24390,
      "type": "SCALAR"
    },
    {
      "bufferView": 2,
      "byteOffset": 513792,
      "componentType": 5126,
      "count": 6828,
      "max": [
        37.729576110839844,
        106.07589721679688,
        58.73926544189453
      ],
      "min": [
        -37.729576110839844,
        -53.673099517822266,
        3.9535350799560547
      ],
      "type": "VEC3"
    },
    {
      "bufferView": 2,
      "byteOffset": 595728,
      "componentType": 5126,
      "count": 6828,
      "max": [
        1.0,
        0.9999818801879883,
        0.9998833537101746
      ],
      "min": [
        -1.0,
        -0.9998766183853149,
        -0.9999693632125854
      ],
      "type": "VEC3"
    },
    {
      "bufferView": 3,
      "byteOffset": 342528,
      "componentType": 5126,
      "count": 6828,
      "max": [
        1.0,
        0.9999938607215881,
        0.9996429085731506,
        1.0
      ],
      "min": [
        -1.0,
        -0.9999886155128479,
        -0.9998766779899597,
        -1.0
      ],
      "type": "VEC4"
    },
    {
      "bufferView": 1,
      "byteOffset": 171264,
      "componentType": 5126,
      "count": 6828,
      "max": [
        1.2172009944915771,
        0.9943280220031738
      ],
      "min": [
        0.0,
        -0.8309749960899353
      ],
      "type": "VEC2"
    },
    {
      "bufferView": 0,
      "byteOffset": 345840,
      "componentType": 5125,
      "count": 31638,
      "type": "SCALAR"
    },
    {
      "bufferView": 2,
      "byteOffset": 677664,
      "componentType": 5126,
      "count": 9429,
      "max": [
        34.767173767089844,
        90.875,
        54.815860748291016
      ],
      "min": [
        -34.62382125854492,
        -54.311885833740234,
        3.9535350799560547
      ],
      "type": "VEC3"
    },
    {
      "bufferView": 2,
      "byteOffset": 790812,
      "componentType": 5126,
      "count": 9429,
      "max": [
        0.9989323616027832,
        0.9991035461425781,
        0.9997137784957886
      ],
      "min": [
        -0.9940983653068542,
        -1.0,
        -0.9985541105270386
      ],
      "type": "VEC3"
    },
    {
      "bufferView": 3,
      "byteOffset": 451776,
      "componentType": 5126,
      "count": 9429,
      "max": [
        1.0,
        0.9989627599716187,
        0.9999967217445374,
        1.0
      ],
      "min": [
        -0.9999983906745911,
        -0.9985268712043762,
        -0.9918190836906433,
        -1.0
      ],
      "type": "VEC4"
    },
    {
      "bufferView": 1,
      "byteOffset": 225888,
      "componentType": 5126,
      "count": 9429,
      "max": [
        0.9600200057029724,
        0.9892939925193787
      ],
      "min": [
        0.0,
        4.999999873689376e-05
      ],
      "type": "VEC2"
    },
    {
      "bufferView": 0,
      "byteOffset": 472392,
      "componentType": 5125,
      "count": 27060,
      "type": "SCALAR"
    },
    {
      "bufferView": 2,
      "byteOffset": 903960,
      "componentType": 5126,
      "count": 9136,
      "max": [
        34.536128997802734,
        95.53313446044922,
        42.02338409423828
      ],
      "min": [
        -34.67027282714844,
        -54.56090545654297,
        0.16459999978542328
      ],
      "type": "VEC3"
    },
    {
      "bufferView": 2,
      "byteOffset": 1013592,
      "componentType": 5126,
      "count": 9136,
      "max": [
        0.9999823570251465,
        0.9990243315696716,
        0.9990144968032837
      ],
      "min": [
        -0.9999823570251465,
        -0.9990242123603821,
        -0.9990144968032837
      ],
      "type": "VEC3"
    },
    {
      "bufferView": 3,
      "byteOffset": 602640,
      "componentType": 5126,
      "count": 9136,
      "max": [
        0.9999505281448364,
        0.9999874830245972,
        0.99913489818573,
        1.0
      ],
      "min": [
        -0.9999527335166931,
        -0.9952840805053711,
        -0.990265429019928,
        -1.0
      ],
      "type": "VEC4"
    },
    {
      "bufferView": 1,
      "byteOffset": 301320,
      "componentType": 5126,
      "count": 9136,
      "max": [
        0.993457019329071,
        0.9906280040740967
      ],
      "min": [
        0.42305898666381836,
        0.005183999892324209
      ],
      "type": "VEC2"
    },
    {
      "bufferView": 0,
      "byteOffset": 580632,
      "componentType": 5125,
      "count": 43026,
      "type": "SCALAR"
    },
    {
      "bufferView": 2,
      "byteOffset": 1123224,
      "componentType": 5126,
      "count": 9017,
      "max": [
        27.572072982788086,
        91.02500915527344,
        62.11214065551758
      ],
      "min": [
        -34.767173767089844,
        -54.55495834350586,
        14.927900314331055
      ],
      "type": "VEC3"
    },
    {
      "bufferView": 2,
      "byteOffset": 1231428,
      "componentType": 5126,
      "count": 9017,
      "max": [
        0.9710673689842224,
        0.9966402649879456,
        1.0
      ],
      "min": [
        -0.9989311099052429,
        -1.0,
        -0.9998812675476074
      ],
      "type": "VEC3"
    },
    {
      "bufferView": 3,
      "byteOffset": 748816,
      "componentType": 5126,
      "count": 9017,
      "max": [
        0.9999960660934448,
        0.9972370266914368,
        0.9999860525131226,
        1.0
      ],
      "min": [
        -1.0,
        -1.0,
        -0.9920132756233215,
        -1.0
      ],
      "type": "VEC4"
    },
    {
      "bufferView": 1,
      "byteOffset": 374408,
      "componentType": 5126,
      "count": 9017,
      "max": [
        0.993340015411377,
        0.9906280040740967
      ],
      "min": [
        0.3659529983997345,
        0.15556199848651886
      ],
      "type": "VEC2"
    },
    {
      "bufferView": 0,
      "byteOffset": 752736,
      "componentType": 5125,
      "count": 30510,
      "type": "SCALAR"
    }
  ],
  "asset": {
    "extras": {
      "author": "Camay (https://sketchfab.com/Camay)",
      "license": "CC-BY-4.0 (http://creativecommons.org/licenses/by/4.0/)",
      "source": "https://sketchfab.com/3d-models/red-car-595228b5dda74defb25a767a04b3da0d",
      "title": "Red Car"
    },
    "generator": "Sketchfab-14.86.0",
    "version": "2.0"
  },
  "bufferViews": [
    {
      "buffer": 0,
      "byteLength": 874776,
      "name": "floatBufferViews",
      "target": 34963
    },
    {
      "buffer": 0,
      "byteLength": 446544,
      "byteOffset": 874776,
      "byteStride": 8,
      "name": "floatBufferViews",
      "target": 34962
    },
    {
      "buffer": 0,
      "byteLength": 1339632,
      "byteOffset": 1321320,
      "byteStride": 12,
      "name": "floatBufferViews",
      "target": 34962
    },
    {
      "buffer": 0,
      "byteLength": 893088,
      "byteOffset": 2660952,
      "byteStride": 16,
      "name": "floatBufferViews",
      "target": 34962
    }
  ],
  "buffers": [
    {
      "byteLength": 3554040,
      "uri": "scene.bin"
    }
  ],
  "images": [
    {
      "uri": "textures/initialShadingGroup_baseColor.png"
    },
    {
      "uri": "textures/initialShadingGroup_metallicRoughness.png"
    },
    {
      "uri": "textures/initialShadingGroup_normal.png"
    }
  ],
  "materials": [
    {
      "doubleSided": true,
      "name": "initialShadingGroup",
      "normalTexture": {
        "index": 2
      },
      "pbrMetallicRoughness": {
        "baseColorTexture": {
          "index": 0
        },
        "metallicRoughnessTexture": {
          "index": 1
        }
      }
    }
  ],
  "meshes": [
    {
      "name": "Object_0",
      "primitives": [
        {
          "attributes": {
            "NORMAL": 1,
            "POSITION": 0,
            "TANGENT": 2,
            "TEXCOORD_0": 3
          },
          "indices": 4,
          "material": 0,
          "mode": 4
        }
      ]
    },
    {
      "name": "Object_1",
      "primitives": [
        {
          "attributes": {
            "NORMAL": 6,
            "POSITION": 5,
            "TANGENT": 7,
            "TEXCOORD_0": 8
          },
          "indices": 9,
          "material": 0,
          "mode": 4
        }
      ]
    },
    {
      "name": "Object_2",
      "primitives": [
        {
          "attributes": {
            "NORMAL": 11,
            "POSITION": 10,
            "TANGENT": 12,
            "TEXCOORD_0": 13
          },
          "indices": 14,
          "material": 0,
          "mode": 4
        }
      ]
    },
    {
      "name": "Object_3",
      "primitives": [
        {
          "attributes": {
            "NORMAL": 16,
            "POSITION": 15,
            "TANGENT": 17,
            "TEXCOORD_0": 18
          },
          "indices": 19,
          "material": 0,
          "mode": 4
        }
      ]
    },
    {
      "name": "Object_4",
      "primitives": [
        {
          "attributes": {
            "NORMAL": 21,
            "POSITION": 20,
            "TANGENT": 22,
            "TEXCOORD_0": 23
          },
          "indices": 24,
          "material": 0,
          "mode": 4
        }
      ]
    },
    {
      "name": "Object_5",
      "primitives": [
        {
          "attributes": {
            "NORMAL": 26,
            "POSITION": 25,
            "TANGENT": 27,
            "TEXCOORD_0": 28
          },
          "indices": 29,
          "material": 0,
          "mode": 4
        }
      ]
    }
  ],
  "nodes": [
    {
      "children": [
        1
      ],
      "matrix": [
        1.0,
        0.0,
        0.0,
        0.0,
        0.0,
        2.220446049250313e-16,
        -1.0,
        0.0,
        0.0,
        1.0,
        2.220446049250313e-16,
        0.0,
        0.0,
        0.0,
        0.0,
        1.0
      ],
      "name": "Sketchfab_model"
    },
    {
      "children": [
        2,
        3,
        4,
        5,
        6,
        7
      ],
      "name": "car.obj.cleaner.materialmerger.gles"
    },
    {
      "mesh": 0,
      "name": "Object_2"
    },
    {
      "mesh": 1,
      "name": "Object_3"
    },
    {
      "mesh": 2,
      "name": "Object_4"
    },
    {
      "mesh": 3,
      "name": "Object_5"
    },
    {
      "mesh": 4,
      "name": "Object_6"
    },
    {
      "mesh": 5,
      "name": "Object_7"
    }
  ],
  "samplers": [
    {
      "magFilter": 9729,
      "minFilter": 9987,
      "wrapS": 10497,
      "wrapT": 10497
    }
  ],
  "scene": 0,
  "scenes": [
    {
      "name": "Sketchfab_Scene",
      "nodes": [
        0
      ]
    }
  ],
  "textures": [
    {
      "sampler": 0,
      "source": 0
    },
    {
      "sampler": 0,
      "source": 1
    },
    {
      "sampler": 0,
      "source": 2
    }
  ]
}
